PathFileType   4   (X/Y/Z)																																																																																																																							
DataRate	CameraRate	NumFrames	NumMarkers	Units	OrigDataRate	OrigDataStartFrame	OrigNumFrames																																																																																																																
120	120	4	37	mm	120	59	156																																																																																																																
Frame#	Time	Sternum	R.Acromium	L.Acromium	Top.Head	R.ASIS	L.ASIS	V.Sacral	R.Thigh.Upper	R.Thigh.Front	R.Thigh.Rear	R.Knee.Lat	R.Knee.Med	R.Shank.Upper	R.Shank.Front	R.Shank.Rear	R.Ankle.Lat	R.Ankle.Med	R.Heel	R.Midfoot.Sup	R.Midfoot.Lat	R.Toe.Lat	R.Toe.Med	R.Toe.Tip	L.Thigh.Upper	L.Thigh.Front	L.Thigh.Rear	L.Knee.Lat	L.Knee.Med	L.Shank.Upper	L.Shank.Front	L.Shank.Rear	L.Ankle.Lat	L.Ankle.Med	L.Heel	L.Midfoot.Sup	L.Midfoot.Lat	L.Toe.Lat	L.Toe.Med	L.Toe.Tip																																																																															
 	 	X1	Y1	Z1	X2	Y2	Z2	X3	Y3	Z3	X4	Y4	Z4	X5	Y5	Z5	X6	Y6	Z6	X7	Y7	Z7	X8	Y8	Z8	X9	Y9	Z9	X10	Y10	Z10	X11	Y11	Z11	X12	Y12	Z12	X13	Y13	Z13	X14	Y14	Z14	X15	Y15	Z15	X16	Y16	Z16	X17	Y17	Z17	X18	Y18	Z18	X19	Y19	Z19	X20	Y20	Z20	X21	Y21	Z21	X22	Y22	Z22	X23	Y23	Z23	X24	Y24	Z24	X25	Y25	Z25	X26	Y26	Z26	X27	Y27	Z27	X28	Y28	Z28	X29	Y29	Z29	X30	Y30	Z30	X31	Y31	Z31	X32	Y32	Z32	X33	Y33	Z33	X34	Y34	Z34	X35	Y35	Z35	X36	Y36	Z36	X37	Y37	Z37	X38	Y38	Z38	X39	Y39	Z39	
																																																																																																																							
	59	0.7	-1773.701184	-0.001002095	1340.551037	-1832.721007	-161.9453511	1421.528315	-1830.110946	165.1979949	1420.661779	-1682.082583	-10.08809499	1617.993495	-1818.933687	-117.7896216	1009.34086	-1812.632397	119.399185	1002.464085	-1995.050255	-5.611229398	996.869772	-1752.31882	-173.4115572	704.2977849	-1668.213683	-67.95180237	664.4135025	-1714.197179	-162.9734513	575.5135977	-1720.36184	-142.5943975	471.3615838	-1715.407145	-8.355853302	453.4659472	-1744.560907	-154.6508593	429.0482008	-1653.751152	-93.81404015	411.2846077	-1704.26042	-165.0122006	340.988441	-1624.450484	-136.9768135	32.21371755	-1619.949417	-37.22329306	50.05700583	-1685.3074	-79.10633289	-13.24243285	-1542.849309	-41.71858376	40.80690219	-1542.346221	-155.3841374	19.1579911	-1444.166259	-165.0174344	21.29979932	-1445.668296	-50.15543807	35.28565276	-1383.837386	-83.79364801	53.81940198	-1893.738147	178.8034865	676.6082978	-1815.980631	95.03600439	616.7686149	-1924.527547	161.7547942	559.7630124	-1977.421667	144.5366564	422.8307326	-1975.953359	15.87918741	423.3809929	-1991.582423	162.4477689	400.0078573	-1961.792366	100.5194763	331.7249963	-2024.739472	174.5177999	360.0667334	-2114.474389	136.4325857	20.55762297	-2102.150711	34.31683281	43.93179585	-2198.413668	76.11439987	5.926040458	-2015.912277	48.15109198	0.440490704	-2035.367561	152.6198727	1.319596487	-1969.539147	163.716336	-26.30046023	-1951.506167	55.50675189	-27.1367533	-1899.405525	82.30973808	-28.61093884
	60	0.70833	-1767.182332	-0.001002095	1339.536389	-1826.15272	-161.9453511	1420.549674	-1823.543188	165.1979949	1419.681545	-1675.394415	-10.08809499	1616.922878	-1812.584667	-117.7896216	1008.47442	-1806.280379	119.399185	1001.600392	-1988.695782	-5.611229398	995.9265558	-1745.875245	-173.4115572	703.4337306	-1661.760186	-67.95180237	663.5703754	-1707.721562	-162.9734513	574.6590324	-1713.860309	-142.5943975	470.5054878	-1708.901162	-8.355853302	452.6110845	-1737.771157	-154.6508593	428.1502863	-1646.876163	-93.81404015	410.8281337	-1697.043277	-165.0122006	340.2873799	-1615.733993	-136.9768135	31.90408563	-1611.319677	-37.22329306	49.76903329	-1676.495522	-79.10633289	-13.67402902	-1534.158094	-41.71858376	40.69227501	-1533.606818	-155.3841374	19.0445374	-1435.431867	-165.0174344	21.40488284	-1436.965032	-50.15543807	35.38735819	-1375.17553	-83.79364801	54.05869328	-1888.422653	178.8034865	675.7061983	-1810.942512	95.03600439	615.5078041	-1919.751716	161.7547942	559.0044515	-1973.278092	144.5366564	422.31808	-1971.807257	15.87918741	422.8615487	-1987.908667	162.4477689	399.635598	-1958.804126	100.5194763	331.0577423	-2021.46416	174.5177999	360.0286279	-2114.595597	136.4325857	21.43546942	-2102.038387	34.31683281	44.68501741	-2198.621588	76.11439987	7.322076306	-2016.156043	48.15109198	0.751366205	-2035.605755	152.6198727	1.746148656	-1969.94275	163.716336	-26.26487299	-1951.915062	55.50675189	-27.20838566	-1899.824107	82.30973808	-28.99236525
	61	0.71667	-1760.633817	-0.001002095	1338.576517	-1819.571566	-161.9453511	1419.61355	-1816.962385	165.1979949	1418.74437	-1668.73417	-10.08809499	1615.926008	-1806.145317	-117.7896216	1007.623303	-1799.838403	119.399185	1000.751684	-1982.251624	-5.611229398	995.0081499	-1739.387541	-173.4115572	702.5607502	-1655.270494	-67.95180237	662.701592	-1701.227434	-162.9734513	573.7879559	-1707.360984	-142.5943975	469.6341051	-1702.400943	-8.355853302	451.7399493	-1731.102475	-154.6508593	427.2570218	-1640.159012	-93.81404015	410.1911678	-1690.127075	-165.0122006	339.509275	-1607.948792	-136.9768135	31.35641401	-1603.584854	-37.22329306	49.23373449	-1668.70392	-79.10633289	-14.22500474	-1526.381047	-41.71858376	40.1793903	-1525.823978	-155.3841374	18.531801	-1427.649662	-165.0174344	20.91842036	-1429.186569	-50.15543807	34.9004849	-1367.402066	-83.79364801	53.58835569	-1882.971194	178.8034865	674.8282761	-1805.756834	95.03600439	614.2893506	-1914.813745	161.7547942	558.26559	-1968.94138	144.5366564	421.8161989	-1967.468166	15.87918741	422.3531868	-1984.078006	162.4477689	399.2861417	-1955.69185	100.5194763	330.4078233	-2018.04565	174.5177999	360.0320667	-2114.71107	136.4325857	22.43084036	-2101.911535	34.31683281	45.54786681	-2198.829679	76.11439987	8.892280763	-2016.411688	48.15109198	1.112456884	-2035.85438	152.6198727	2.236117012	-1970.378455	163.716336	-26.20945943	-1952.357416	55.50675189	-27.27242668	-1900.279428	82.30973808	-29.40159067
	62	0.725	-1754.042404	-0.001002095	1337.674236	-1812.960948	-161.9453511	1418.725233	-1810.351972	165.1979949	1417.855435	-1662.077034	-10.08809499	1615.001941	-1799.614592	-117.7896216	1006.798252	-1793.305345	119.399185	999.9287754	-1975.716606	-5.611229398	994.1233046	-1732.848292	-173.4115572	701.6923597	-1648.736166	-67.95180237	661.8228162	-1694.704083	-162.9734513	572.9148548	-1700.850493	-142.5943975	468.7617622	-1695.892662	-8.355853302	450.8669941	-1724.541132	-154.6508593	426.3808096	-1633.583978	-93.81404015	409.3880735	-1683.495201	-165.0122006	338.6660325	-1601.069211	-136.9768135	30.57933695	-1596.719647	-37.22329306	48.46015996	-1661.920234	-79.10633289	-14.86835848	-1519.490571	-41.71858376	39.25584484	-1518.976104	-155.3841374	17.60720116	-1420.797281	-165.0174344	19.80061232	-1422.306669	-50.15543807	33.78567437	-1360.485509	-83.79364801	52.35191926	-1877.372331	178.8034865	673.9836586	-1800.409513	95.03600439	613.1252696	-1909.697656	161.7547942	557.5539317	-1964.390284	144.5366564	421.3300221	-1962.914857	15.87918741	421.8609003	-1980.07232	162.4477689	398.9658829	-1952.439966	100.5194763	329.7817113	-2014.466569	174.5177999	360.0850542	-2114.812627	136.4325857	23.55948303	-2101.761431	34.31683281	46.53536811	-2199.02933	76.11439987	10.65712465	-2016.673571	48.15109198	1.534267741	-2036.107463	152.6198727	2.801064637	-1970.842773	163.716336	-26.12587584	-1952.830049	55.50675189	-27.32151309	-1900.769152	82.30973808	-29.83409821
